<?xml version="1.0" standalone="no"?>
<!DOCTYPE svg PUBLIC "-//W3C//DTD SVG 20010904//EN"
 "http://www.w3.org/TR/2001/REC-SVG-20010904/DTD/svg10.dtd">
<svg version="1.0" xmlns="http://www.w3.org/2000/svg"
 width="100.000000pt" height="100.000000pt" viewBox="0 0 100.000000 100.000000"
 preserveAspectRatio="xMidYMid meet">
<metadata>
Created by potrace 1.16, written by Peter Selinger 2001-2019
</metadata>
<g transform="translate(0.000000,100.000000) scale(0.100000,-0.100000)"
fill="#000000" stroke="none">
<path d="M616 960 c-56 -28 -76 -48 -102 -105 -26 -54 -32 -115 -11 -115 95 0
207 114 207 209 0 27 -3 31 -27 31 -16 -1 -46 -10 -67 -20z"/>
<path d="M275 747 c-155 -60 -218 -217 -166 -412 39 -145 118 -267 195 -305
l41 -19 78 21 c71 19 85 20 140 9 149 -30 176 -25 239 44 35 39 46 57 83 135
25 52 25 55 8 67 -10 7 -33 28 -51 45 -84 81 -83 211 3 286 19 17 35 36 35 43
0 16 -39 47 -95 74 -62 31 -126 32 -197 5 -67 -25 -99 -25 -166 0 -58 22 -102
24 -147 7z"/>
</g>
</svg>
