<svg width="189" height="34" viewBox="0 0 189 34" fill="none" xmlns="http://www.w3.org/2000/svg">
<path fill-rule="evenodd" clip-rule="evenodd" d="M13.393 34C6.46234 34 1.82631 30.8795 0 25.8959L7.16477 21.7507C8.38231 24.6384 10.5364 26.0822 13.6271 26.0822C16.2027 26.0822 17.467 25.337 17.467 23.8932C17.467 22.9151 16.7178 22.1699 15.2661 21.5644C14.6573 21.3315 13.2525 20.9123 11.1452 20.3068C5.15114 18.5836 1.40486 15.6959 1.40486 10.1068C1.40486 7.07945 2.48191 4.65753 4.63603 2.79452C6.83697 0.931507 9.55302 0 12.7842 0C18.2631 0 22.7118 2.60822 24.9596 7.45205L17.9353 11.5507C16.9051 9.12877 15.2193 7.91781 12.831 7.91781C10.8174 7.91781 9.78717 8.80274 9.78717 10.0603C9.78717 11.5041 10.9579 12.2959 15.4066 13.6C16.9988 14.0658 18.2631 14.4849 19.2465 14.9041C20.2299 15.3233 21.2602 15.8822 22.4309 16.674C24.7255 18.1644 25.8494 20.5863 25.8494 23.8C25.8494 27.0137 24.7255 29.4822 22.4309 31.2986C20.1363 33.1151 17.1392 34 13.393 34ZM29.1274 0.69863H41.8647C45.1895 0.69863 47.9524 1.76986 50.2002 3.91233C52.448 6.05479 53.5719 8.80274 53.5719 12.1096C53.5719 15.4164 52.448 18.1644 50.2002 20.3068C47.9524 22.4493 45.1895 23.5205 41.8647 23.5205H37.5097V33.3014H29.1274V0.69863ZM41.8647 15.6027H37.5097V8.66301H41.8647C43.7379 8.66301 45.1895 10.0603 45.1895 12.1096C45.1895 14.1589 43.7379 15.6027 41.8647 15.6027ZM65.2322 20.6795V25.4767H77.9227V33.3014H56.8498V0.69863H77.6886V8.47671H65.2322V12.9945H76.5178V20.6795H65.2322ZM101.899 33.3014H110.937L100.119 0.69863H89.9108L79.0934 33.3014H88.1781L89.583 28.5973H100.494L101.899 33.3014ZM95.0151 10.3397L91.7371 21.4247H98.3399L95.0151 10.3397ZM140.486 33.3014L129.621 16.5342L140.017 0.69863H130.652L121.707 14.3918V0.69863H113.325V33.3014H121.707V18.7233L131.12 33.3014H140.486ZM151.256 20.6795V25.4767H163.947V33.3014H142.874V0.69863H163.713V8.47671H151.256V12.9945H162.542V20.6795H151.256ZM176.309 25.4767V20.6795H187.595V12.9945H176.309V8.47671H188.766V0.69863H167.927V33.3014H189V25.4767H176.309Z" fill="#95A5B8"/>
<path fill-rule="evenodd" clip-rule="evenodd" d="M13.393 34C6.46234 34 1.82631 30.8795 0 25.8959L7.16477 21.7507C8.38231 24.6384 10.5364 26.0822 13.6271 26.0822C16.2027 26.0822 17.467 25.337 17.467 23.8932C17.467 22.9151 16.7178 22.1699 15.2661 21.5644C14.6573 21.3315 13.2525 20.9123 11.1452 20.3068C5.15114 18.5836 1.40486 15.6959 1.40486 10.1068C1.40486 7.07945 2.48191 4.65753 4.63603 2.79452C6.83697 0.931507 9.55302 0 12.7842 0C18.2631 0 22.7118 2.60822 24.9596 7.45205L17.9353 11.5507C16.9051 9.12877 15.2193 7.91781 12.831 7.91781C10.8174 7.91781 9.78717 8.80274 9.78717 10.0603C9.78717 11.5041 10.9579 12.2959 15.4066 13.6C16.9988 14.0658 18.2631 14.4849 19.2465 14.9041C20.2299 15.3233 21.2602 15.8822 22.4309 16.674C24.7255 18.1644 25.8494 20.5863 25.8494 23.8C25.8494 27.0137 24.7255 29.4822 22.4309 31.2986C20.1363 33.1151 17.1392 34 13.393 34ZM29.1274 0.69863H41.8647C45.1895 0.69863 47.9524 1.76986 50.2002 3.91233C52.448 6.05479 53.5719 8.80274 53.5719 12.1096C53.5719 15.4164 52.448 18.1644 50.2002 20.3068C47.9524 22.4493 45.1895 23.5205 41.8647 23.5205H37.5097V33.3014H29.1274V0.69863ZM41.8647 15.6027H37.5097V8.66301H41.8647C43.7379 8.66301 45.1895 10.0603 45.1895 12.1096C45.1895 14.1589 43.7379 15.6027 41.8647 15.6027ZM65.2322 20.6795V25.4767H77.9227V33.3014H56.8498V0.69863H77.6886V8.47671H65.2322V12.9945H76.5178V20.6795H65.2322ZM101.899 33.3014H110.937L100.119 0.69863H89.9108L79.0934 33.3014H88.1781L89.583 28.5973H100.494L101.899 33.3014ZM95.0151 10.3397L91.7371 21.4247H98.3399L95.0151 10.3397ZM140.486 33.3014L129.621 16.5342L140.017 0.69863H130.652L121.707 14.3918V0.69863H113.325V33.3014H121.707V18.7233L131.12 33.3014H140.486ZM151.256 20.6795V25.4767H163.947V33.3014H142.874V0.69863H163.713V8.47671H151.256V12.9945H162.542V20.6795H151.256ZM176.309 25.4767V20.6795H187.595V12.9945H176.309V8.47671H188.766V0.69863H167.927V33.3014H189V25.4767H176.309Z" fill="url(#paint0_linear)"/>
<defs>
<linearGradient id="paint0_linear" x1="283.5" y1="17" x2="271.651" y2="-48.8684" gradientUnits="userSpaceOnUse">
<stop stop-color="#FF7676"/>
<stop offset="1" stop-color="#F54EA2"/>
</linearGradient>
</defs>
</svg>
